<svg xmlns="http://www.w3.org/2000/svg" xmlns:xlink="http://www.w3.org/1999/xlink" contentStyleType="text/css" data-diagram-type="STATE" height="906px" preserveAspectRatio="none" style="width:1370px;height:906px;background:#FFFFFF;" version="1.1" viewBox="0 0 1370 906" width="1370px" zoomAndPan="magnify"><defs/><g><ellipse cx="1025.46" cy="16" fill="#222222" rx="10" ry="10" style="stroke:#222222;stroke-width:1;"/><g id="INIT"><rect fill="#F1F1F1" height="64.2344" rx="12.5" ry="12.5" style="stroke:#181818;stroke-width:0.5;" width="196.4258" x="927.25" y="87"/><line style="stroke:#181818;stroke-width:0.5;" x1="927.25" x2="1123.6758" y1="113.2969" y2="113.2969"/><text fill="#000000" font-family="sans-serif" font-size="14" lengthAdjust="spacing" textLength="27.2822" x="1011.8218" y="104.9951">INIT</text><text fill="#000000" font-family="sans-serif" font-size="12" lengthAdjust="spacing" textLength="67.418" x="932.25" y="129.4355">Initial state</text><text fill="#000000" font-family="sans-serif" font-size="12" lengthAdjust="spacing" textLength="176.4258" x="932.25" y="143.4043">Can only use /auth command</text></g><g id="AUTHENTICATING"><rect fill="#F1F1F1" height="78.2031" rx="12.5" ry="12.5" style="stroke:#181818;stroke-width:0.5;" width="221.5332" x="914.69" y="243.24"/><line style="stroke:#181818;stroke-width:0.5;" x1="914.69" x2="1136.2232" y1="269.5369" y2="269.5369"/><text fill="#000000" font-family="sans-serif" font-size="14" lengthAdjust="spacing" textLength="124.2568" x="963.3282" y="261.2351">AUTHENTICATING</text><text fill="#000000" font-family="sans-serif" font-size="12" lengthAdjust="spacing" textLength="122.2148" x="919.69" y="285.6755">Sent AUTH message</text><text fill="#000000" font-family="sans-serif" font-size="12" lengthAdjust="spacing" textLength="166.5117" x="919.69" y="299.6443">Waiting for server response</text><text fill="#000000" font-family="sans-serif" font-size="12" lengthAdjust="spacing" textLength="201.5332" x="919.69" y="313.613">Valid messages: REPLY, ERR, BYE</text></g><g id="JOINED"><rect fill="#F1F1F1" height="92.1719" rx="12.5" ry="12.5" style="stroke:#181818;stroke-width:0.5;" width="239.334" x="352.79" y="398.44"/><line style="stroke:#181818;stroke-width:0.5;" x1="352.79" x2="592.124" y1="424.7369" y2="424.7369"/><text fill="#000000" font-family="sans-serif" font-size="14" lengthAdjust="spacing" textLength="49.376" x="447.769" y="416.4351">JOINED</text><text fill="#000000" font-family="sans-serif" font-size="12" lengthAdjust="spacing" textLength="219.334" x="357.79" y="440.8755">Successfully authenticated to server</text><text fill="#000000" font-family="sans-serif" font-size="12" lengthAdjust="spacing" textLength="178.5703" x="357.79" y="454.8443">In a channel or waiting to join</text><text fill="#000000" font-family="sans-serif" font-size="12" lengthAdjust="spacing" textLength="150.082" x="357.79" y="468.813">Can send chat messages</text><text fill="#000000" font-family="sans-serif" font-size="12" lengthAdjust="spacing" textLength="207.2695" x="357.79" y="482.7818">Can use /join, /rename, /bye, /help</text></g><g id="JOIN_WAITING"><rect fill="#F1F1F1" height="78.2031" rx="12.5" ry="12.5" style="stroke:#181818;stroke-width:0.5;" width="256.4316" x="90.24" y="582.61"/><line style="stroke:#181818;stroke-width:0.5;" x1="90.24" x2="346.6716" y1="608.9069" y2="608.9069"/><text fill="#000000" font-family="sans-serif" font-size="14" lengthAdjust="spacing" textLength="98.3008" x="169.3054" y="600.6051">JOIN_WAITING</text><text fill="#000000" font-family="sans-serif" font-size="12" lengthAdjust="spacing" textLength="106.3184" x="95.24" y="625.0455">Sent JOIN request</text><text fill="#000000" font-family="sans-serif" font-size="12" lengthAdjust="spacing" textLength="197.3086" x="95.24" y="639.0143">Waiting for channel confirmation</text><text fill="#000000" font-family="sans-serif" font-size="12" lengthAdjust="spacing" textLength="236.4316" x="95.24" y="652.983">Valid messages: MSG, REPLY, ERR, BYE</text></g><g id="TERMINATED"><rect fill="#F1F1F1" height="64.2344" rx="12.5" ry="12.5" style="stroke:#181818;stroke-width:0.5;" width="171.4297" x="505.74" y="752.82"/><line style="stroke:#181818;stroke-width:0.5;" x1="505.74" x2="677.1697" y1="779.1169" y2="779.1169"/><text fill="#000000" font-family="sans-serif" font-size="14" lengthAdjust="spacing" textLength="91.5605" x="545.6746" y="770.8151">TERMINATED</text><text fill="#000000" font-family="sans-serif" font-size="12" lengthAdjust="spacing" textLength="109.3184" x="510.74" y="795.2555">Connection ended</text><text fill="#000000" font-family="sans-serif" font-size="12" lengthAdjust="spacing" textLength="151.4297" x="510.74" y="809.2243">No more actions possible</text></g><ellipse cx="591.46" cy="889.05" fill="none" rx="11" ry="11" style="stroke:#222222;stroke-width:1;"/><ellipse cx="591.46" cy="889.05" fill="#222222" rx="6" ry="6" style="stroke:#222222;stroke-width:1;"/><!--link *start* to INIT--><g class="link" data-entity-1="*start*" data-entity-2="INIT" data-source-line="2" data-uid="lnk4" id="link_*start*_INIT"><path d="M1025.46,26.33 C1025.46,39.93 1025.46,59.82 1025.46,80.65" fill="none" id="*start*-to-INIT" style="stroke:#181818;stroke-width:1;"/><polygon fill="#181818" points="1025.46,86.65,1029.46,77.65,1025.46,81.65,1021.46,77.65,1025.46,86.65" style="stroke:#181818;stroke-width:1;"/></g><!--link INIT to AUTHENTICATING--><g class="link" data-entity-1="INIT" data-entity-2="AUTHENTICATING" data-source-line="25" data-uid="lnk6" id="link_INIT_AUTHENTICATING"><path d="M927.14,129.76 C894.51,138.19 861.45,153.53 841.46,181.24 C814.01,219.28 855.1902,242.7192 908.5102,258.2792" fill="none" id="INIT-to-AUTHENTICATING" style="stroke:#181818;stroke-width:1;"/><polygon fill="#181818" points="914.27,259.96,906.7509,253.5989,909.4702,258.5593,904.5098,261.2786,914.27,259.96" style="stroke:#181818;stroke-width:1;"/><text fill="#000000" font-family="sans-serif" font-size="13" lengthAdjust="spacing" textLength="102.9399" x="860.5" y="194.3069">/auth command</text><text fill="#000000" font-family="sans-serif" font-size="13" lengthAdjust="spacing" textLength="139.02" x="842.46" y="209.4397">with valid credentials</text></g><!--link AUTHENTICATING to INIT--><g class="link" data-entity-1="AUTHENTICATING" data-entity-2="INIT" data-source-line="26" data-uid="lnk7" id="link_AUTHENTICATING_INIT"><path d="M1023.33,242.84 C1022.54,224.23 1021.96,201.57 1022.46,181.24 C1022.7,171.57 1022.8385,167.0524 1023.3185,157.5124" fill="none" id="AUTHENTICATING-to-INIT" style="stroke:#181818;stroke-width:1;stroke-dasharray:1.0,3.0;"/><polygon fill="#181818" points="1023.62,151.52,1019.1728,160.3076,1023.3687,156.5137,1027.1627,160.7096,1023.62,151.52" style="stroke:#181818;stroke-width:1;"/><text fill="#000000" font-family="sans-serif" font-size="13" lengthAdjust="spacing" textLength="181.3081" x="1023.46" y="201.8069">Authentication failed locally</text></g><!--link AUTHENTICATING to INIT--><g class="link" data-entity-1="AUTHENTICATING" data-entity-2="INIT" data-source-line="34" data-uid="lnk16" id="link_AUTHENTICATING_INIT"><path d="M1136.65,259.96 C1189.97,244.4 1236.91,219.28 1209.46,181.24 C1189.47,153.53 1162.2091,139.6913 1129.5891,131.2613" fill="none" id="AUTHENTICATING-to-INIT-1" style="stroke:#181818;stroke-width:1;"/><polygon fill="#181818" points="1123.78,129.76,1131.4929,135.8847,1128.621,131.0111,1133.4946,128.1391,1123.78,129.76" style="stroke:#181818;stroke-width:1;"/><text fill="#000000" font-family="sans-serif" font-size="13" lengthAdjust="spacing" textLength="142.8032" x="1219.46" y="201.8069">Receives failed REPLY</text></g><!--link JOINED to JOIN_WAITING--><g class="link" data-entity-1="JOINED" data-entity-2="JOIN_WAITING" data-source-line="27" data-uid="lnk10" id="link_JOINED_JOIN_WAITING"><path d="M352.75,453.63 C256.71,462.92 132.92,482.14 101.46,520.61 C82.93,543.27 96.57,561.6672 124.08,578.9572" fill="none" id="JOINED-to-JOIN_WAITING" style="stroke:#181818;stroke-width:1;"/><polygon fill="#181818" points="129.16,582.15,123.6685,573.9742,124.9267,579.4894,119.4115,580.7475,129.16,582.15" style="stroke:#181818;stroke-width:1;"/><text fill="#000000" font-family="sans-serif" font-size="13" lengthAdjust="spacing" textLength="96.8145" x="113.2637" y="533.6769">/join command</text><text fill="#000000" font-family="sans-serif" font-size="13" lengthAdjust="spacing" textLength="118.4219" x="102.46" y="548.8097">with valid channel</text></g><!--link JOIN_WAITING to JOINED--><g class="link" data-entity-1="JOIN_WAITING" data-entity-2="JOINED" data-source-line="36" data-uid="lnk18" id="link_JOIN_WAITING_JOINED"><path d="M226.87,582.6 C233.22,561.81 243.94,537.05 261.46,520.61 C286.7,496.94 314.215,482.598 346.785,471.418" fill="none" id="JOIN_WAITING-to-JOINED" style="stroke:#181818;stroke-width:1;"/><polygon fill="#181818" points="352.46,469.47,342.6489,468.6087,347.7309,471.0933,345.2462,476.1753,352.46,469.47" style="stroke:#181818;stroke-width:1;"/><text fill="#000000" font-family="sans-serif" font-size="13" lengthAdjust="spacing" textLength="174.0654" x="262.46" y="541.1769">Receives successful REPLY</text></g><!--link JOINED to JOINED--><g class="link" data-entity-1="JOINED" data-entity-2="JOINED" data-source-line="28" data-uid="lnk11" id="link_JOINED_JOINED"><path d="M592.43,437.12 C612.93,438.14 627.13,440.6 627.13,444.53 C627.13,448.45 618.9227,450.6247 598.4227,451.6347" fill="none" id="JOINED-to-JOINED" style="stroke:#181818;stroke-width:1;stroke-dasharray:1.0,3.0;"/><polygon fill="#181818" points="592.43,451.93,601.6159,455.4823,597.4239,451.684,601.2223,447.492,592.43,451.93" style="stroke:#181818;stroke-width:1;"/><text fill="#000000" font-family="sans-serif" font-size="13" lengthAdjust="spacing" textLength="123.6079" x="648.3326" y="441.5969">/rename command</text><text fill="#000000" font-family="sans-serif" font-size="13" lengthAdjust="spacing" textLength="154.0132" x="633.13" y="456.7297">[updates display name]</text></g><!--link JOINED to JOINED--><g class="link" data-entity-1="JOINED" data-entity-2="JOINED" data-source-line="38" data-uid="lnk20" id="link_JOINED_JOINED"><path d="M592.37,430.03 C685.53,426.02 793.13,430.86 793.13,444.53 C793.13,458.2 691.5245,463.2874 598.3645,459.2874" fill="none" id="JOINED-to-JOINED-1" style="stroke:#181818;stroke-width:1;"/><polygon fill="#181818" points="592.37,459.03,601.1901,463.4124,597.3654,459.2445,601.5333,455.4198,592.37,459.03" style="stroke:#181818;stroke-width:1;"/><text fill="#000000" font-family="sans-serif" font-size="13" lengthAdjust="spacing" textLength="91.9268" x="832.2743" y="441.5969">Receives MSG</text><text fill="#000000" font-family="sans-serif" font-size="13" lengthAdjust="spacing" textLength="158.2153" x="799.13" y="456.7297">[displays chat message]</text></g><!--link JOINED to TERMINATED--><g class="link" data-entity-1="JOINED" data-entity-2="TERMINATED" data-source-line="29" data-uid="lnk13" id="link_JOINED_TERMINATED"><path d="M468.6,491.03 C466.53,535.89 468.05,605.55 490.46,660.82 C504.9,696.43 529.1763,725.4284 552.2463,748.3784" fill="none" id="JOINED-to-TERMINATED" style="stroke:#181818;stroke-width:1;"/><polygon fill="#181818" points="556.5,752.61,552.9405,743.4269,552.9553,749.0837,547.2984,749.0984,556.5,752.61" style="stroke:#181818;stroke-width:1;"/><text fill="#000000" font-family="sans-serif" font-size="13" lengthAdjust="spacing" textLength="97.3413" x="512.7596" y="618.7769">/bye command</text><text fill="#000000" font-family="sans-serif" font-size="13" lengthAdjust="spacing" textLength="139.9404" x="491.46" y="633.9097">[sends BYE message]</text></g><!--link JOINED to TERMINATED--><g class="link" data-entity-1="JOINED" data-entity-2="TERMINATED" data-source-line="39" data-uid="lnk21" id="link_JOINED_TERMINATED"><path d="M552.14,490.91 C584.3,513.86 617.9,544.9 635.46,582.61 C661.74,639.05 634.7945,706.4764 613.0245,747.2764" fill="none" id="JOINED-to-TERMINATED-1" style="stroke:#181818;stroke-width:1;"/><polygon fill="#181818" points="610.2,752.57,617.9659,746.5127,612.5538,748.1587,610.9078,742.7466,610.2,752.57" style="stroke:#181818;stroke-width:1;"/><text fill="#000000" font-family="sans-serif" font-size="13" lengthAdjust="spacing" textLength="118.1172" x="647.46" y="626.2769">Receives ERR/BYE</text></g><!--link JOINED to TERMINATED--><g class="link" data-entity-1="JOINED" data-entity-2="TERMINATED" data-source-line="43" data-uid="lnk23" id="link_JOINED_TERMINATED"><path d="M592.37,467.27 C658.16,485.98 734.31,520.29 774.46,582.61 C793.28,611.83 790.8,630.14 774.46,660.82 C752.32,702.39 714.5437,729.6821 675.7237,749.6821" fill="none" id="JOINED-to-TERMINATED-2" style="stroke:#181818;stroke-width:1;"/><polygon fill="#181818" points="670.39,752.43,680.2226,751.8639,674.8348,750.1401,676.5587,744.7523,670.39,752.43" style="stroke:#181818;stroke-width:1;"/><text fill="#000000" font-family="sans-serif" font-size="13" lengthAdjust="spacing" textLength="106.4502" x="789.46" y="618.7769">Protocol error or</text><text fill="#000000" font-family="sans-serif" font-size="13" lengthAdjust="spacing" textLength="105.5425" x="789.9139" y="633.9097">invalid message</text></g><!--link JOIN_WAITING to TERMINATED--><g class="link" data-entity-1="JOIN_WAITING" data-entity-2="TERMINATED" data-source-line="30" data-uid="lnk14" id="link_JOIN_WAITING_TERMINATED"><path d="M89.82,651.07 C42.21,667.4 6,691.06 34.46,722.82 C65.28,757.2 350.8057,773.9381 499.3457,780.4281" fill="none" id="JOIN_WAITING-to-TERMINATED" style="stroke:#181818;stroke-width:1;"/><polygon fill="#181818" points="505.34,780.69,496.5232,776.301,500.3448,780.4717,496.174,784.2933,505.34,780.69" style="stroke:#181818;stroke-width:1;"/><text fill="#000000" font-family="sans-serif" font-size="13" lengthAdjust="spacing" textLength="97.3413" x="56.7596" y="703.8869">/bye command</text><text fill="#000000" font-family="sans-serif" font-size="13" lengthAdjust="spacing" textLength="139.9404" x="35.46" y="719.0197">[sends BYE message]</text></g><!--link JOIN_WAITING to TERMINATED--><g class="link" data-entity-1="JOIN_WAITING" data-entity-2="TERMINATED" data-source-line="37" data-uid="lnk19" id="link_JOIN_WAITING_TERMINATED"><path d="M205.94,661.03 C201.77,681.62 201.27,706.13 215.46,722.82 C251.93,765.7 400.1944,778.3392 499.4444,782.1592" fill="none" id="JOIN_WAITING-to-TERMINATED-1" style="stroke:#181818;stroke-width:1;"/><polygon fill="#181818" points="505.44,782.39,496.6005,778.0468,500.4437,782.1977,496.2928,786.0409,505.44,782.39" style="stroke:#181818;stroke-width:1;"/><text fill="#000000" font-family="sans-serif" font-size="13" lengthAdjust="spacing" textLength="118.1172" x="216.46" y="711.3869">Receives ERR/BYE</text></g><!--link JOIN_WAITING to TERMINATED--><g class="link" data-entity-1="JOIN_WAITING" data-entity-2="TERMINATED" data-source-line="44" data-uid="lnk24" id="link_JOIN_WAITING_TERMINATED"><path d="M292.63,661.14 C308.48,670.26 324.84,680.39 339.46,690.82 C356.89,703.25 356.69,712.53 375.46,722.82 C415.62,744.82 458.5727,758.155 499.6127,767.595" fill="none" id="JOIN_WAITING-to-TERMINATED-2" style="stroke:#181818;stroke-width:1;"/><polygon fill="#181818" points="505.46,768.94,497.5857,763.0243,500.5872,767.8192,495.7924,770.8207,505.46,768.94" style="stroke:#181818;stroke-width:1;"/><text fill="#000000" font-family="sans-serif" font-size="13" lengthAdjust="spacing" textLength="106.4502" x="376.46" y="703.8869">Protocol error or</text><text fill="#000000" font-family="sans-serif" font-size="13" lengthAdjust="spacing" textLength="105.5425" x="376.9139" y="719.0197">invalid message</text></g><!--link AUTHENTICATING to JOINED--><g class="link" data-entity-1="AUTHENTICATING" data-entity-2="JOINED" data-source-line="33" data-uid="lnk15" id="link_AUTHENTICATING_JOINED"><path d="M914.22,315.56 C820.86,342.61 693.5631,379.4806 597.9031,407.1906" fill="none" id="AUTHENTICATING-to-JOINED" style="stroke:#181818;stroke-width:1;"/><polygon fill="#181818" points="592.14,408.86,601.8976,410.198,596.9426,407.4688,599.6717,402.5138,592.14,408.86" style="stroke:#181818;stroke-width:1;"/><text fill="#000000" font-family="sans-serif" font-size="13" lengthAdjust="spacing" textLength="174.0654" x="783.46" y="364.5069">Receives successful REPLY</text></g><!--link AUTHENTICATING to TERMINATED--><g class="link" data-entity-1="AUTHENTICATING" data-entity-2="TERMINATED" data-source-line="35" data-uid="lnk17" id="link_AUTHENTICATING_TERMINATED"><path d="M1024.38,321.66 C1020.13,397.31 999.85,566.67 904.46,660.82 C842.53,721.93 752.5098,752.2758 683.1898,768.0858" fill="none" id="AUTHENTICATING-to-TERMINATED" style="stroke:#181818;stroke-width:1;"/><polygon fill="#181818" points="677.34,769.42,687.0041,771.3186,682.2148,768.3082,685.2252,763.5189,677.34,769.42" style="stroke:#181818;stroke-width:1;"/><text fill="#000000" font-family="sans-serif" font-size="13" lengthAdjust="spacing" textLength="118.1172" x="988.46" y="541.1769">Receives ERR/BYE</text></g><!--link AUTHENTICATING to TERMINATED--><g class="link" data-entity-1="AUTHENTICATING" data-entity-2="TERMINATED" data-source-line="42" data-uid="lnk22" id="link_AUTHENTICATING_TERMINATED"><path d="M1057.13,321.92 C1097.14,375.66 1156.15,475.16 1115.46,552.61 C1031.53,712.4 809.1663,761.1668 683.3963,776.4368" fill="none" id="AUTHENTICATING-to-TERMINATED-1" style="stroke:#181818;stroke-width:1;"/><polygon fill="#181818" points="677.44,777.16,686.8565,780.0461,682.4036,776.5574,685.8923,772.1044,677.44,777.16" style="stroke:#181818;stroke-width:1;"/><text fill="#000000" font-family="sans-serif" font-size="13" lengthAdjust="spacing" textLength="106.4502" x="1128.46" y="533.6769">Protocol error or</text><text fill="#000000" font-family="sans-serif" font-size="13" lengthAdjust="spacing" textLength="105.5425" x="1128.9139" y="548.8097">invalid message</text></g><!--link TERMINATED to *end*--><g class="link" data-entity-1="TERMINATED" data-entity-2="*end*" data-source-line="47" data-uid="lnk26" id="link_TERMINATED_*end*"><path d="M591.46,817.4 C591.46,838.03 591.46,857.69 591.46,871.71" fill="none" id="TERMINATED-to-*end*" style="stroke:#181818;stroke-width:1;"/><polygon fill="#181818" points="591.46,877.71,595.46,868.71,591.46,872.71,587.46,868.71,591.46,877.71" style="stroke:#181818;stroke-width:1;"/></g><!--SRC=[dLLTZzem47pFhzYtaoeGx_TGYLwZQwfUUeAqfzCTgeopW2l7Jcs74_- -kn12Fk2A-eB0djsTdHcB6qYC2afey444Z5u-B60y_WX9ccHHT0DpFeKSlNIg3CeQ7_4LtFRgwiCxOS0QlOFA8qn45JOWRL48aqVHz4Vs9Kwpv6wQ9UazWUTe0l0f5EYzMECGyYHeY5d3oZhmwBRemA4lYSOPy4-XLNxivMzX5Zz-Unv1F9kDuDDp74LVloTf_9adLr8IR5LfeieiYOcIj4SEmTQ3JkZ4W02v4SQW1YBoLfCYw6-hp0d8stiqEOD3GwHxlnU6oqOmSMX4WVHbkUFF3UhoGFBNqpHfYyHdjFYV2dte0zeI7KbAQrRA5O8Dw-FxAZtCxqT3gR9uzf2aq-p0sr9NoSs0jiEyUvjQAAn347k4Xz9whvOQEJwP4yQhmtbmQhr6Hnelz_bmnsZKaUBO3JpjPEZLl2dwjTrl8AaJsoQqxqTX_9BRG6OkwY1Jd-d9P5vZ9PGc8jfAGH4uEiGCUchjhJe__w1rKzkQsHXUEtogVwdAd6Bc8LU-r687VBrep-z8oy5e5NEsFFjpj6_HDVS_wj_pgFVWXZAtLvsXHBMbpNppjWwfEbTLczBKr7PSn7UMQgeehHCEwq23AqYzhzlP4Qs0T47qWaZSsb7VUVoNhHsC82TYv-WHXvCV_zJYqTbWfTM0-rBhNeqos_OBlqZWojBB8btHWDE5hb2c-PzeTU26z7Vp5m00]--></g></svg>