<svg xmlns="http://www.w3.org/2000/svg" xmlns:xlink="http://www.w3.org/1999/xlink" contentStyleType="text/css" data-diagram-type="ACTIVITY" height="527px" preserveAspectRatio="none" style="width:861px;height:527px;background:#FFFFFF;" version="1.1" viewBox="0 0 861 527" width="861px" zoomAndPan="magnify"><title>Chat Client Workflow</title><defs/><g><g class="title" data-source-line="1"><text fill="#000000" font-family="sans-serif" font-size="14" font-weight="bold" lengthAdjust="spacing" textLength="166.8721" x="345.718" y="32.9951">Chat Client Workflow</text></g><rect fill="none" height="20.9531" style="stroke:none;stroke-width:1;" width="828.3081" x="15" y="50.042"/><ellipse cx="169.9141" cy="85.9951" fill="#222222" rx="10" ry="10" style="stroke:#222222;stroke-width:1;"/><rect fill="#F1F1F1" height="33.9688" rx="12.5" ry="12.5" style="stroke:#181818;stroke-width:0.5;" width="297.8281" x="21" y="115.9951"/><text fill="#000000" font-family="sans-serif" font-size="12" lengthAdjust="spacing" textLength="277.8281" x="31" y="137.1338">Enter command (e.g., /auth, /join) or chat text</text><line style="stroke:#000000;stroke-width:1.5;" x1="15" x2="15" y1="50.042" y2="515.7764"/><rect fill="#F1F1F1" height="33.9688" rx="12.5" ry="12.5" style="stroke:#181818;stroke-width:0.5;" width="289.6836" x="328.8281" y="169.9639"/><text fill="#000000" font-family="sans-serif" font-size="12" lengthAdjust="spacing" textLength="269.6836" x="338.8281" y="191.1025">Open socket to server (TCP/UDP/WebSocket)</text><rect fill="#F1F1F1" height="33.9688" rx="12.5" ry="12.5" style="stroke:#181818;stroke-width:0.5;" width="224.8789" x="361.2305" y="223.9326"/><text fill="#000000" font-family="sans-serif" font-size="12" lengthAdjust="spacing" textLength="204.8789" x="371.2305" y="245.0713">Serialize input into protocol frame</text><rect fill="#F1F1F1" height="33.9688" rx="12.5" ry="12.5" style="stroke:#181818;stroke-width:0.5;" width="210.1719" x="368.584" y="385.8389"/><text fill="#000000" font-family="sans-serif" font-size="12" lengthAdjust="spacing" textLength="190.1719" x="378.584" y="406.9775">Deserialize frame into message</text><rect fill="#F1F1F1" height="33.9688" rx="12.5" ry="12.5" style="stroke:#181818;stroke-width:0.5;" width="278.0117" x="334.6641" y="439.8076"/><text fill="#000000" font-family="sans-serif" font-size="12" lengthAdjust="spacing" textLength="258.0117" x="344.6641" y="460.9463">UI displays incoming chat, errors, or status</text><ellipse cx="473.6699" cy="504.7764" fill="none" rx="11" ry="11" style="stroke:#222222;stroke-width:1;"/><ellipse cx="473.6699" cy="504.7764" fill="#222222" rx="6" ry="6" style="stroke:#222222;stroke-width:1;"/><line style="stroke:#000000;stroke-width:1.5;" x1="322.8281" x2="322.8281" y1="50.042" y2="515.7764"/><rect fill="#F1F1F1" height="33.9688" rx="12.5" ry="12.5" style="stroke:#181818;stroke-width:0.5;" width="186.2188" x="639.8701" y="277.9014"/><text fill="#000000" font-family="sans-serif" font-size="12" lengthAdjust="spacing" textLength="166.2188" x="649.8701" y="299.04">Transmit frame over socket</text><rect fill="#F1F1F1" height="33.9688" rx="12.5" ry="12.5" style="stroke:#181818;stroke-width:0.5;" width="208.9355" x="628.5117" y="331.8701"/><text fill="#000000" font-family="sans-serif" font-size="12" lengthAdjust="spacing" textLength="188.9355" x="638.5117" y="353.0088">Await and receive server frame</text><line style="stroke:#000000;stroke-width:1.5;" x1="622.5117" x2="622.5117" y1="50.042" y2="515.7764"/><line style="stroke:#000000;stroke-width:1.5;" x1="841.4473" x2="841.4473" y1="50.042" y2="515.7764"/><line style="stroke:#181818;stroke-width:1;" x1="169.9141" x2="169.9141" y1="95.9951" y2="115.9951"/><polygon fill="#181818" points="165.9141,105.9951,169.9141,115.9951,173.9141,105.9951,169.9141,109.9951" style="stroke:#181818;stroke-width:1;"/><line style="stroke:#181818;stroke-width:1;" x1="473.6699" x2="473.6699" y1="203.9326" y2="223.9326"/><polygon fill="#181818" points="469.6699,213.9326,473.6699,223.9326,477.6699,213.9326,473.6699,217.9326" style="stroke:#181818;stroke-width:1;"/><line style="stroke:#181818;stroke-width:1;" x1="473.6699" x2="473.6699" y1="419.8076" y2="439.8076"/><polygon fill="#181818" points="469.6699,429.8076,473.6699,439.8076,477.6699,429.8076,473.6699,433.8076" style="stroke:#181818;stroke-width:1;"/><line style="stroke:#181818;stroke-width:1;" x1="473.6699" x2="473.6699" y1="473.7764" y2="493.7764"/><polygon fill="#181818" points="469.6699,483.7764,473.6699,493.7764,477.6699,483.7764,473.6699,487.7764" style="stroke:#181818;stroke-width:1;"/><line style="stroke:#181818;stroke-width:1;" x1="732.9795" x2="732.9795" y1="311.8701" y2="331.8701"/><polygon fill="#181818" points="728.9795,321.8701,732.9795,331.8701,736.9795,321.8701,732.9795,325.8701" style="stroke:#181818;stroke-width:1;"/><line style="stroke:#181818;stroke-width:1;" x1="169.9141" x2="169.9141" y1="149.9639" y2="154.9639"/><line style="stroke:#181818;stroke-width:1;" x1="169.9141" x2="473.6699" y1="154.9639" y2="154.9639"/><line style="stroke:#181818;stroke-width:1;" x1="473.6699" x2="473.6699" y1="154.9639" y2="169.9639"/><polygon fill="#181818" points="469.6699,159.9639,473.6699,169.9639,477.6699,159.9639,473.6699,163.9639" style="stroke:#181818;stroke-width:1;"/><line style="stroke:#181818;stroke-width:1;" x1="473.6699" x2="473.6699" y1="257.9014" y2="262.9014"/><line style="stroke:#181818;stroke-width:1;" x1="473.6699" x2="732.9795" y1="262.9014" y2="262.9014"/><line style="stroke:#181818;stroke-width:1;" x1="732.9795" x2="732.9795" y1="262.9014" y2="277.9014"/><polygon fill="#181818" points="728.9795,267.9014,732.9795,277.9014,736.9795,267.9014,732.9795,271.9014" style="stroke:#181818;stroke-width:1;"/><line style="stroke:#181818;stroke-width:1;" x1="732.9795" x2="732.9795" y1="365.8389" y2="370.8389"/><line style="stroke:#181818;stroke-width:1;" x1="732.9795" x2="473.6699" y1="370.8389" y2="370.8389"/><line style="stroke:#181818;stroke-width:1;" x1="473.6699" x2="473.6699" y1="370.8389" y2="385.8389"/><polygon fill="#181818" points="469.6699,375.8389,473.6699,385.8389,477.6699,375.8389,473.6699,379.8389" style="stroke:#181818;stroke-width:1;"/><text fill="#000000" font-family="sans-serif" font-size="18" lengthAdjust="spacing" textLength="41.0273" x="148.4004" y="66.75">User</text><text fill="#000000" font-family="sans-serif" font-size="18" lengthAdjust="spacing" textLength="52.1104" x="446.6147" y="66.75">Client</text><text fill="#000000" font-family="sans-serif" font-size="18" lengthAdjust="spacing" textLength="75.1553" x="694.4019" y="66.75">Network</text><!--SRC=[FP31ReCm38RlUGeVMmcLEprDT8TTjaejwZcZBiqQOcIRiaqy_0neN9B35t__7slGY53UlK8P0oQ52_7Z5cbmRgm4UNIYdjKLhqcHeQQszUaA6zmrkmnot-lThYyAQGjaV38fVklUvXVZw8gF3XC8rGyqI63Qfxasv_AOLuTZVi7FqmotUrUSa8EFuHSXfAvNEssYOrAgASADVOkJ-nrriAOcFxDFqWPT6D2aNhBCzZ9u8rDZnXh34__3Lz5Qye2oHY-gERf54T_Oqw9wWskGBleVCMIR2AcPFvm1CXDBDct0rgMzc5cKkZy0]--></g></svg>