<svg xmlns="http://www.w3.org/2000/svg" xmlns:xlink="http://www.w3.org/1999/xlink" contentStyleType="text/css" data-diagram-type="CLASS" height="1293px" preserveAspectRatio="none" style="width:1446px;height:1293px;background:#FFFFFF;" version="1.1" viewBox="0 0 1446 1293" width="1446px" zoomAndPan="magnify"><defs/><g><!--cluster Protocol Types--><g class="cluster" data-entity="Protocol Types" data-source-line="21" data-uid="ent0002" id="cluster_Protocol Types"><rect fill="none" height="631" rx="2.5" ry="2.5" style="stroke:#000000;stroke-width:1.5;" width="193.8" x="103.67" y="483"/><text fill="#000000" font-family="sans-serif" font-size="14" font-style="italic" lengthAdjust="spacing" textLength="74.1016" x="163.5192" y="497.9951">&#171;Protocol&#187;</text><text fill="#000000" font-family="sans-serif" font-size="14" font-weight="bold" lengthAdjust="spacing" textLength="117.209" x="141.9655" y="514.292">Protocol Types</text></g><!--cluster Client Base--><g class="cluster" data-entity="Client Base" data-source-line="57" data-uid="ent0006" id="cluster_Client Base"><rect fill="none" height="441" rx="2.5" ry="2.5" style="stroke:#000000;stroke-width:1.5;" width="424.81" x="422.14" y="428"/><text fill="#000000" font-family="sans-serif" font-size="14" font-style="italic" lengthAdjust="spacing" textLength="51.2217" x="608.9342" y="442.9951">&#171;Base&#187;</text><text fill="#000000" font-family="sans-serif" font-size="14" font-weight="bold" lengthAdjust="spacing" textLength="88.8467" x="590.1217" y="459.292">Client Base</text></g><!--cluster TCP Client--><g class="cluster" data-entity="TCP Client" data-source-line="86" data-uid="ent0008" id="cluster_TCP Client"><rect fill="none" height="359" rx="2.5" ry="2.5" style="stroke:#000000;stroke-width:1.5;" width="338.12" x="988.8" y="928"/><text fill="#000000" font-family="sans-serif" font-size="14" font-style="italic" lengthAdjust="spacing" textLength="43.9004" x="1135.9098" y="942.9951">&#171;TCP&#187;</text><text fill="#000000" font-family="sans-serif" font-size="14" font-weight="bold" lengthAdjust="spacing" textLength="80.9854" x="1117.3673" y="959.292">TCP Client</text></g><!--cluster UDP Client--><g class="cluster" data-entity="UDP Client" data-source-line="110" data-uid="ent0010" id="cluster_UDP Client"><rect fill="none" height="587" rx="2.5" ry="2.5" style="stroke:#000000;stroke-width:1.5;" width="565.82" x="874.95" y="317"/><text fill="#000000" font-family="sans-serif" font-size="14" font-style="italic" lengthAdjust="spacing" textLength="46.6006" x="1134.5597" y="331.9951">&#171;UDP&#187;</text><text fill="#000000" font-family="sans-serif" font-size="14" font-weight="bold" lengthAdjust="spacing" textLength="84.1504" x="1115.7848" y="348.292">UDP Client</text></g><!--cluster Application Entry--><g class="cluster" data-entity="Application Entry" data-source-line="148" data-uid="ent0012" id="cluster_Application Entry"><rect fill="none" height="452" rx="2.5" ry="2.5" style="stroke:#000000;stroke-width:1.5;" width="387.14" x="7" y="7"/><text fill="#000000" font-family="sans-serif" font-size="14" font-style="italic" lengthAdjust="spacing" textLength="50.5518" x="175.2941" y="21.9951">&#171;Main&#187;</text><text fill="#000000" font-family="sans-serif" font-size="14" font-weight="bold" lengthAdjust="spacing" textLength="136.4248" x="132.3576" y="38.292">Application Entry</text></g><!--class MessageType--><g class="entity" data-entity="MessageType" data-source-line="23" data-uid="ent0003" id="entity_MessageType"><rect fill="#F1F1F1" height="194.6719" rx="2.5" ry="2.5" style="stroke:#181818;stroke-width:0.5;" width="127.6963" x="136.72" y="533.66"/><ellipse cx="151.72" cy="549.66" fill="#EB937F" rx="11" ry="11" style="stroke:#181818;stroke-width:1;"/><path d="M155.8294,555.66 L148.1106,555.66 L148.1106,543.2694 L155.8294,543.2694 L155.8294,545.4256 L150.5638,545.4256 L150.5638,548.0975 L155.3294,548.0975 L155.3294,550.2538 L150.5638,550.2538 L150.5638,553.5038 L155.8294,553.5038 L155.8294,555.66 Z " fill="#000000"/><text fill="#000000" font-family="sans-serif" font-size="14" lengthAdjust="spacing" textLength="95.6963" x="165.72" y="554.5067">MessageType</text><line style="stroke:#181818;stroke-width:0.5;" x1="137.72" x2="263.4163" y1="565.66" y2="565.66"/><text fill="#000000" font-family="sans-serif" font-size="14" lengthAdjust="spacing" textLength="38.9033" x="142.72" y="582.6551">AUTH</text><text fill="#000000" font-family="sans-serif" font-size="14" lengthAdjust="spacing" textLength="29.75" x="142.72" y="598.952">JOIN</text><text fill="#000000" font-family="sans-serif" font-size="14" lengthAdjust="spacing" textLength="31.8145" x="142.72" y="615.2489">MSG</text><text fill="#000000" font-family="sans-serif" font-size="14" lengthAdjust="spacing" textLength="27.002" x="142.72" y="631.5457">BYE</text><text fill="#000000" font-family="sans-serif" font-size="14" lengthAdjust="spacing" textLength="43.3672" x="142.72" y="647.8426">REPLY</text><text fill="#000000" font-family="sans-serif" font-size="14" lengthAdjust="spacing" textLength="28.3008" x="142.72" y="664.1395">ERR</text><text fill="#000000" font-family="sans-serif" font-size="14" lengthAdjust="spacing" textLength="65.2559" x="142.72" y="680.4364">CONFIRM</text><text fill="#000000" font-family="sans-serif" font-size="14" lengthAdjust="spacing" textLength="33.8926" x="142.72" y="696.7332">PING</text><text fill="#000000" font-family="sans-serif" font-size="14" lengthAdjust="spacing" textLength="75.708" x="142.72" y="713.0301">UNKNOWN</text><line style="stroke:#181818;stroke-width:0.5;" x1="137.72" x2="263.4163" y1="720.3319" y2="720.3319"/></g><!--class ClientState--><g class="entity" data-entity="ClientState" data-source-line="35" data-uid="ent0004" id="entity_ClientState"><rect fill="#F1F1F1" height="129.4844" rx="2.5" ry="2.5" style="stroke:#181818;stroke-width:0.5;" width="136.2568" x="132.44" y="763.26"/><ellipse cx="159.441" cy="779.26" fill="#EB937F" rx="11" ry="11" style="stroke:#181818;stroke-width:1;"/><path d="M163.5504,785.26 L155.8317,785.26 L155.8317,772.8694 L163.5504,772.8694 L163.5504,775.0256 L158.2848,775.0256 L158.2848,777.6975 L163.0504,777.6975 L163.0504,779.8538 L158.2848,779.8538 L158.2848,783.1038 L163.5504,783.1038 L163.5504,785.26 Z " fill="#000000"/><text fill="#000000" font-family="sans-serif" font-size="14" lengthAdjust="spacing" textLength="77.5879" x="176.1079" y="784.1067">ClientState</text><line style="stroke:#181818;stroke-width:0.5;" x1="133.44" x2="267.6968" y1="795.26" y2="795.26"/><text fill="#000000" font-family="sans-serif" font-size="14" lengthAdjust="spacing" textLength="27.2822" x="138.44" y="812.2551">INIT</text><text fill="#000000" font-family="sans-serif" font-size="14" lengthAdjust="spacing" textLength="124.2568" x="138.44" y="828.552">AUTHENTICATING</text><text fill="#000000" font-family="sans-serif" font-size="14" lengthAdjust="spacing" textLength="98.3008" x="138.44" y="844.8489">JOIN_WAITING</text><text fill="#000000" font-family="sans-serif" font-size="14" lengthAdjust="spacing" textLength="49.376" x="138.44" y="861.1457">JOINED</text><text fill="#000000" font-family="sans-serif" font-size="14" lengthAdjust="spacing" textLength="91.5605" x="138.44" y="877.4426">TERMINATED</text><line style="stroke:#181818;stroke-width:0.5;" x1="133.44" x2="267.6968" y1="884.7444" y2="884.7444"/></g><!--class ParsedMessage--><g class="entity" data-entity="ParsedMessage" data-source-line="43" data-uid="ent0005" id="entity_ParsedMessage"><rect fill="#ADD8E6" height="170.3438" rx="2.5" ry="2.5" style="stroke:#181818;stroke-width:0.5;" width="161.8027" x="119.67" y="927.83"/><ellipse cx="144.0624" cy="947.9628" fill="#ADD1B2" rx="11" ry="11" style="stroke:#181818;stroke-width:1;"/><path d="M147.0312,953.6034 Q146.4531,953.9003 145.8124,954.0409 Q145.1718,954.1972 144.4687,954.1972 Q141.9687,954.1972 140.6406,952.5566 Q139.3281,950.9003 139.3281,947.7753 Q139.3281,944.6503 140.6406,942.9941 Q141.9687,941.3378 144.4687,941.3378 Q145.1718,941.3378 145.8124,941.4941 Q146.4687,941.6503 147.0312,941.9472 L147.0312,944.6659 Q146.4062,944.0878 145.8124,943.8222 Q145.2187,943.5409 144.5937,943.5409 Q143.2499,943.5409 142.5624,944.6191 Q141.8749,945.6816 141.8749,947.7753 Q141.8749,949.8691 142.5624,950.9472 Q143.2499,952.0097 144.5937,952.0097 Q145.2187,952.0097 145.8124,951.7441 Q146.4062,951.4628 147.0312,950.8847 L147.0312,953.6034 Z " fill="#000000"/><text fill="#000000" font-family="sans-serif" font-size="12" font-style="italic" lengthAdjust="spacing" textLength="63.5156" x="182.8572" y="943.9687">&#171;Protocol&#187;</text><text fill="#000000" font-family="sans-serif" font-size="14" lengthAdjust="spacing" textLength="108.9307" x="160.1496" y="959.7939">ParsedMessage</text><line style="stroke:#181818;stroke-width:0.5;" x1="120.67" x2="280.4727" y1="968.0956" y2="968.0956"/><ellipse cx="130.67" cy="981.7441" fill="none" rx="3" ry="3" style="stroke:#038048;stroke-width:1;"/><text fill="#000000" font-family="sans-serif" font-size="14" lengthAdjust="spacing" textLength="131.4209" x="139.67" y="985.0907">MessageType type</text><ellipse cx="130.67" cy="998.0409" fill="none" rx="3" ry="3" style="stroke:#038048;stroke-width:1;"/><text fill="#000000" font-family="sans-serif" font-size="14" lengthAdjust="spacing" textLength="122.8281" x="139.67" y="1001.3876">String      param1</text><ellipse cx="130.67" cy="1014.3378" fill="none" rx="3" ry="3" style="stroke:#038048;stroke-width:1;"/><text fill="#000000" font-family="sans-serif" font-size="14" lengthAdjust="spacing" textLength="122.8281" x="139.67" y="1017.6845">String      param2</text><ellipse cx="130.67" cy="1030.6347" fill="none" rx="3" ry="3" style="stroke:#038048;stroke-width:1;"/><text fill="#000000" font-family="sans-serif" font-size="14" lengthAdjust="spacing" textLength="122.8281" x="139.67" y="1033.9814">String      param3</text><ellipse cx="130.67" cy="1046.9316" fill="none" rx="3" ry="3" style="stroke:#038048;stroke-width:1;"/><text fill="#000000" font-family="sans-serif" font-size="14" lengthAdjust="spacing" textLength="118.0635" x="139.67" y="1050.2782">uint16_t    msgId</text><ellipse cx="130.67" cy="1063.2284" fill="none" rx="3" ry="3" style="stroke:#038048;stroke-width:1;"/><text fill="#000000" font-family="sans-serif" font-size="14" lengthAdjust="spacing" textLength="135.8027" x="139.67" y="1066.5751">uint16_t    refMsgId</text><ellipse cx="130.67" cy="1079.5253" fill="none" rx="3" ry="3" style="stroke:#038048;stroke-width:1;"/><text fill="#000000" font-family="sans-serif" font-size="14" lengthAdjust="spacing" textLength="132.9863" x="139.67" y="1082.872">boolean     success</text><line style="stroke:#181818;stroke-width:0.5;" x1="120.67" x2="280.4727" y1="1090.1738" y2="1090.1738"/></g><!--class Client--><g class="entity" data-entity="Client" data-source-line="58" data-uid="ent0007" id="entity_Client"><rect fill="#F1F1F1" height="373.9375" rx="2.5" ry="2.5" style="stroke:#181818;stroke-width:0.5;" width="392.8096" x="438.14" y="479.03"/><ellipse cx="610.0296" cy="495.03" fill="#A9DCDF" rx="11" ry="11" style="stroke:#181818;stroke-width:1;"/><path d="M610.139,490.3738 L608.9828,495.4519 L611.3109,495.4519 L610.139,490.3738 Z M608.6546,488.1394 L611.639,488.1394 L614.9984,500.53 L612.5453,500.53 L611.7796,497.4675 L608.4984,497.4675 L607.7484,500.53 L605.3109,500.53 L608.6546,488.1394 Z " fill="#000000"/><text fill="#000000" font-family="sans-serif" font-size="14" font-style="italic" lengthAdjust="spacing" textLength="40.5303" x="630.5296" y="499.8767">Client</text><line style="stroke:#181818;stroke-width:0.5;" x1="439.14" x2="829.9496" y1="511.03" y2="511.03"/><rect fill="none" height="6" style="stroke:#C82930;stroke-width:1;" width="6" x="446.14" y="521.6784"/><text fill="#000000" font-family="sans-serif" font-size="14" lengthAdjust="spacing" textLength="117.5029" x="458.14" y="528.0251">ClientState state</text><rect fill="none" height="6" style="stroke:#C82930;stroke-width:1;" width="6" x="446.14" y="537.9753"/><text fill="#000000" font-family="sans-serif" font-size="14" lengthAdjust="spacing" textLength="159.4961" x="458.14" y="544.322">String      displayName</text><rect fill="none" height="6" style="stroke:#C82930;stroke-width:1;" width="6" x="446.14" y="554.2722"/><text fill="#000000" font-family="sans-serif" font-size="14" lengthAdjust="spacing" textLength="138.7217" x="458.14" y="560.6189">String      username</text><rect fill="none" height="6" style="stroke:#C82930;stroke-width:1;" width="6" x="446.14" y="570.5691"/><text fill="#000000" font-family="sans-serif" font-size="14" lengthAdjust="spacing" textLength="138.79" x="458.14" y="576.9157">String      channelID</text><rect fill="none" height="6" style="stroke:#C82930;stroke-width:1;" width="6" x="446.14" y="586.8659"/><text fill="#000000" font-family="sans-serif" font-size="14" lengthAdjust="spacing" textLength="121.0098" x="458.14" y="593.2126">int         socketFd</text><rect fill="none" height="6" style="stroke:#C82930;stroke-width:1;" width="6" x="446.14" y="603.1628"/><text fill="#000000" font-family="sans-serif" font-size="14" lengthAdjust="spacing" textLength="117.4277" x="458.14" y="609.5095">boolean     isUdp</text><line style="stroke:#181818;stroke-width:0.5;" x1="439.14" x2="829.9496" y1="616.8113" y2="616.8113"/><ellipse cx="449.14" cy="630.4597" fill="#84BE84" rx="3" ry="3" style="stroke:#038048;stroke-width:1;"/><text fill="#000000" font-family="sans-serif" font-size="14" lengthAdjust="spacing" textLength="302.4629" x="458.14" y="633.8064">setIdentity(user:String,display:String): void</text><ellipse cx="449.14" cy="646.7566" fill="#84BE84" rx="3" ry="3" style="stroke:#038048;stroke-width:1;"/><text fill="#000000" font-family="sans-serif" font-size="14" lengthAdjust="spacing" textLength="61.8447" x="458.14" y="650.1032">run(): int</text><text fill="#000000" font-family="sans-serif" font-size="14" lengthAdjust="spacing" textLength="4.4502" x="458.14" y="666.4001">&#160;</text><polygon fill="#FFFF44" points="449.14,674.3503,453.14,678.3503,449.14,682.3503,445.14,678.3503" style="stroke:#B38D22;stroke-width:1;"/><text fill="#000000" font-family="sans-serif" font-size="14" lengthAdjust="spacing" textLength="255.083" x="458.14" y="682.697">authenticate(secret:String): boolean</text><polygon fill="#FFFF44" points="449.14,690.6472,453.14,694.6472,449.14,698.6472,445.14,694.6472" style="stroke:#B38D22;stroke-width:1;"/><text fill="#000000" font-family="sans-serif" font-size="14" lengthAdjust="spacing" textLength="273.6699" x="458.14" y="698.9939">joinChannel(channelId:String): boolean</text><polygon fill="#FFFF44" points="449.14,706.9441,453.14,710.9441,449.14,714.9441,445.14,710.9441" style="stroke:#B38D22;stroke-width:1;"/><text fill="#000000" font-family="sans-serif" font-size="14" lengthAdjust="spacing" textLength="280.123" x="458.14" y="715.2907">sendChatMessage(msg:String): boolean</text><polygon fill="#FFFF44" points="449.14,723.2409,453.14,727.2409,449.14,731.2409,445.14,727.2409" style="stroke:#B38D22;stroke-width:1;"/><text fill="#000000" font-family="sans-serif" font-size="14" lengthAdjust="spacing" textLength="197.5928" x="458.14" y="731.5876">sendByeMessage(): boolean</text><polygon fill="#FFFF44" points="449.14,739.5378,453.14,743.5378,449.14,747.5378,445.14,743.5378" style="stroke:#B38D22;stroke-width:1;"/><text fill="#000000" font-family="sans-serif" font-size="14" lengthAdjust="spacing" textLength="251.3506" x="458.14" y="747.8845">sendProtocolError(msg:String): void</text><text fill="#000000" font-family="sans-serif" font-size="14" lengthAdjust="spacing" textLength="4.4502" x="458.14" y="764.1814">&#160;</text><polygon fill="#FFFF44" points="449.14,772.1316,453.14,776.1316,449.14,780.1316,445.14,776.1316" style="stroke:#B38D22;stroke-width:1;"/><text fill="#000000" font-family="sans-serif" font-size="14" lengthAdjust="spacing" textLength="254.4951" x="458.14" y="780.4782">processUserInput(input:String): void</text><polygon fill="#FFFF44" points="449.14,788.4284,453.14,792.4284,449.14,796.4284,445.14,792.4284" style="stroke:#B38D22;stroke-width:1;"/><text fill="#000000" font-family="sans-serif" font-size="14" lengthAdjust="spacing" textLength="366.8096" x="458.14" y="796.7751">handleIncomingMessage(msg:ParsedMessage): void</text><polygon fill="#FFFF44" points="449.14,804.7253,453.14,808.7253,449.14,812.7253,445.14,808.7253" style="stroke:#B38D22;stroke-width:1;"/><text fill="#000000" font-family="sans-serif" font-size="14" lengthAdjust="spacing" textLength="332.8281" x="458.14" y="813.072">validateInbound(msg:ParsedMessage): boolean</text><polygon fill="#FFFF44" points="449.14,821.0222,453.14,825.0222,449.14,829.0222,445.14,825.0222" style="stroke:#B38D22;stroke-width:1;"/><text fill="#000000" font-family="sans-serif" font-size="14" lengthAdjust="spacing" textLength="323.5176" x="458.14" y="829.3689">isValidTransition(type:MessageType): boolean</text><polygon fill="#FFFF44" points="449.14,837.3191,453.14,841.3191,449.14,845.3191,445.14,841.3191" style="stroke:#B38D22;stroke-width:1;"/><text fill="#000000" font-family="sans-serif" font-size="14" lengthAdjust="spacing" textLength="309.1211" x="458.14" y="845.6657">resolveHostname(host:String): List&lt;String&gt;</text></g><!--class TcpClient--><g class="entity" data-entity="TcpClient" data-source-line="87" data-uid="ent0009" id="entity_TcpClient"><rect fill="#F1F1F1" height="292.4531" rx="2.5" ry="2.5" style="stroke:#181818;stroke-width:0.5;" width="306.123" x="1004.8" y="978.77"/><ellipse cx="1120.7785" cy="994.77" fill="#ADD1B2" rx="11" ry="11" style="stroke:#181818;stroke-width:1;"/><path d="M1123.7473,1000.4106 Q1123.1691,1000.7075 1122.5285,1000.8481 Q1121.8879,1001.0044 1121.1848,1001.0044 Q1118.6848,1001.0044 1117.3566,999.3638 Q1116.0441,997.7075 1116.0441,994.5825 Q1116.0441,991.4575 1117.3566,989.8013 Q1118.6848,988.145 1121.1848,988.145 Q1121.8879,988.145 1122.5285,988.3013 Q1123.1848,988.4575 1123.7473,988.7544 L1123.7473,991.4731 Q1123.1223,990.895 1122.5285,990.6294 Q1121.9348,990.3481 1121.3098,990.3481 Q1119.966,990.3481 1119.2785,991.4263 Q1118.591,992.4888 1118.591,994.5825 Q1118.591,996.6763 1119.2785,997.7544 Q1119.966,998.8169 1121.3098,998.8169 Q1121.9348,998.8169 1122.5285,998.5513 Q1123.1223,998.27 1123.7473,997.6919 L1123.7473,1000.4106 Z " fill="#000000"/><text fill="#000000" font-family="sans-serif" font-size="14" lengthAdjust="spacing" textLength="65.666" x="1141.2785" y="999.6167">TcpClient</text><line style="stroke:#181818;stroke-width:0.5;" x1="1005.8" x2="1309.923" y1="1010.77" y2="1010.77"/><rect fill="none" height="6" style="stroke:#C82930;stroke-width:1;" width="6" x="1012.8" y="1021.4184"/><text fill="#000000" font-family="sans-serif" font-size="14" lengthAdjust="spacing" textLength="146.8564" x="1024.8" y="1027.7651">String serverAddress</text><rect fill="none" height="6" style="stroke:#C82930;stroke-width:1;" width="6" x="1012.8" y="1037.7153"/><text fill="#000000" font-family="sans-serif" font-size="14" lengthAdjust="spacing" textLength="108.623" x="1024.8" y="1044.062">int    serverPort</text><rect fill="none" height="6" style="stroke:#C82930;stroke-width:1;" width="6" x="1012.8" y="1054.0122"/><text fill="#000000" font-family="sans-serif" font-size="14" lengthAdjust="spacing" textLength="198.5908" x="1024.8" y="1060.3589">Time   terminationStartTime</text><rect fill="none" height="6" style="stroke:#C82930;stroke-width:1;" width="6" x="1012.8" y="1070.3091"/><text fill="#000000" font-family="sans-serif" font-size="14" lengthAdjust="spacing" textLength="232.1484" x="1024.8" y="1076.6557">boolean isWaitingForTermination</text><rect fill="none" height="6" style="stroke:#C82930;stroke-width:1;" width="6" x="1012.8" y="1086.6059"/><text fill="#000000" font-family="sans-serif" font-size="14" lengthAdjust="spacing" textLength="173.2568" x="1024.8" y="1092.9526">boolean waitingForReply</text><rect fill="none" height="6" style="stroke:#C82930;stroke-width:1;" width="6" x="1012.8" y="1102.9028"/><text fill="#000000" font-family="sans-serif" font-size="14" lengthAdjust="spacing" textLength="145.5986" x="1024.8" y="1109.2495">Time   replyDeadline</text><line style="stroke:#181818;stroke-width:0.5;" x1="1005.8" x2="1309.923" y1="1116.5513" y2="1116.5513"/><ellipse cx="1015.8" cy="1130.1997" fill="#84BE84" rx="3" ry="3" style="stroke:#038048;stroke-width:1;"/><text fill="#000000" font-family="sans-serif" font-size="14" lengthAdjust="spacing" textLength="61.8447" x="1024.8" y="1133.5464">run(): int</text><polygon fill="#FFFF44" points="1015.8,1141.4966,1019.8,1145.4966,1015.8,1149.4966,1011.8,1145.4966" style="stroke:#B38D22;stroke-width:1;"/><text fill="#000000" font-family="sans-serif" font-size="14" lengthAdjust="spacing" textLength="255.083" x="1024.8" y="1149.8432">authenticate(secret:String): boolean</text><polygon fill="#FFFF44" points="1015.8,1157.7934,1019.8,1161.7934,1015.8,1165.7934,1011.8,1161.7934" style="stroke:#B38D22;stroke-width:1;"/><text fill="#000000" font-family="sans-serif" font-size="14" lengthAdjust="spacing" textLength="273.6699" x="1024.8" y="1166.1401">joinChannel(channelId:String): boolean</text><polygon fill="#FFFF44" points="1015.8,1174.0903,1019.8,1178.0903,1015.8,1182.0903,1011.8,1178.0903" style="stroke:#B38D22;stroke-width:1;"/><text fill="#000000" font-family="sans-serif" font-size="14" lengthAdjust="spacing" textLength="280.123" x="1024.8" y="1182.437">sendChatMessage(msg:String): boolean</text><polygon fill="#FFFF44" points="1015.8,1190.3872,1019.8,1194.3872,1015.8,1198.3872,1011.8,1194.3872" style="stroke:#B38D22;stroke-width:1;"/><text fill="#000000" font-family="sans-serif" font-size="14" lengthAdjust="spacing" textLength="197.5928" x="1024.8" y="1198.7339">sendByeMessage(): boolean</text><polygon fill="#FFFF44" points="1015.8,1206.6841,1019.8,1210.6841,1015.8,1214.6841,1011.8,1210.6841" style="stroke:#B38D22;stroke-width:1;"/><text fill="#000000" font-family="sans-serif" font-size="14" lengthAdjust="spacing" textLength="251.3506" x="1024.8" y="1215.0307">sendProtocolError(msg:String): void</text><text fill="#000000" font-family="sans-serif" font-size="14" lengthAdjust="spacing" textLength="4.4502" x="1024.8" y="1231.3276">&#160;</text><rect fill="#F24D5C" height="6" style="stroke:#C82930;stroke-width:1;" width="6" x="1012.8" y="1241.2778"/><text fill="#000000" font-family="sans-serif" font-size="14" lengthAdjust="spacing" textLength="243.373" x="1024.8" y="1247.6245">sendMessage(raw:String): boolean</text><rect fill="#F24D5C" height="6" style="stroke:#C82930;stroke-width:1;" width="6" x="1012.8" y="1257.5747"/><text fill="#000000" font-family="sans-serif" font-size="14" lengthAdjust="spacing" textLength="275.9189" x="1024.8" y="1263.9214">processSocketInput(buffer:String): void</text></g><!--class UdpClient--><g class="entity" data-entity="UdpClient" data-source-line="111" data-uid="ent0011" id="entity_UdpClient"><rect fill="#F1F1F1" height="520.6094" rx="2.5" ry="2.5" style="stroke:#181818;stroke-width:0.5;" width="533.8213" x="890.95" y="367.7"/><ellipse cx="1119.3353" cy="383.7" fill="#ADD1B2" rx="11" ry="11" style="stroke:#181818;stroke-width:1;"/><path d="M1122.304,389.3406 Q1121.7259,389.6375 1121.0853,389.7781 Q1120.4446,389.9344 1119.7415,389.9344 Q1117.2415,389.9344 1115.9134,388.2938 Q1114.6009,386.6375 1114.6009,383.5125 Q1114.6009,380.3875 1115.9134,378.7313 Q1117.2415,377.075 1119.7415,377.075 Q1120.4446,377.075 1121.0853,377.2313 Q1121.7415,377.3875 1122.304,377.6844 L1122.304,380.4031 Q1121.679,379.825 1121.0853,379.5594 Q1120.4915,379.2781 1119.8665,379.2781 Q1118.5228,379.2781 1117.8353,380.3563 Q1117.1478,381.4188 1117.1478,383.5125 Q1117.1478,385.6063 1117.8353,386.6844 Q1118.5228,387.7469 1119.8665,387.7469 Q1120.4915,387.7469 1121.0853,387.4813 Q1121.679,387.2 1122.304,386.6219 L1122.304,389.3406 Z " fill="#000000"/><text fill="#000000" font-family="sans-serif" font-size="14" lengthAdjust="spacing" textLength="68.5508" x="1139.8353" y="388.5467">UdpClient</text><line style="stroke:#181818;stroke-width:0.5;" x1="891.95" x2="1423.7713" y1="399.7" y2="399.7"/><rect fill="none" height="6" style="stroke:#C82930;stroke-width:1;" width="6" x="898.95" y="410.3484"/><text fill="#000000" font-family="sans-serif" font-size="14" lengthAdjust="spacing" textLength="178.0078" x="910.95" y="416.6951">String        serverAddress</text><rect fill="none" height="6" style="stroke:#C82930;stroke-width:1;" width="6" x="898.95" y="426.6453"/><text fill="#000000" font-family="sans-serif" font-size="14" lengthAdjust="spacing" textLength="139.7744" x="910.95" y="432.992">int           serverPort</text><rect fill="none" height="6" style="stroke:#C82930;stroke-width:1;" width="6" x="898.95" y="442.9422"/><text fill="#000000" font-family="sans-serif" font-size="14" lengthAdjust="spacing" textLength="158.0605" x="910.95" y="449.2889">uint16_t      timeoutMs</text><rect fill="none" height="6" style="stroke:#C82930;stroke-width:1;" width="6" x="898.95" y="459.2391"/><text fill="#000000" font-family="sans-serif" font-size="14" lengthAdjust="spacing" textLength="225.2441" x="910.95" y="465.5857">uint8_t       maxRetransmissions</text><rect fill="none" height="6" style="stroke:#C82930;stroke-width:1;" width="6" x="898.95" y="475.5359"/><text fill="#000000" font-family="sans-serif" font-size="14" lengthAdjust="spacing" textLength="156.666" x="910.95" y="481.8826">uint16_t      nextMsgId</text><rect fill="none" height="6" style="stroke:#C82930;stroke-width:1;" width="6" x="898.95" y="491.8328"/><text fill="#000000" font-family="sans-serif" font-size="14" lengthAdjust="spacing" textLength="117.9883" x="910.95" y="498.1795">int           epollFd</text><rect fill="none" height="6" style="stroke:#C82930;stroke-width:1;" width="6" x="898.95" y="508.1297"/><text fill="#000000" font-family="sans-serif" font-size="14" lengthAdjust="spacing" textLength="174.3096" x="910.95" y="514.4764">sockaddr_in   serverAddr</text><rect fill="none" height="6" style="stroke:#C82930;stroke-width:1;" width="6" x="898.95" y="524.4266"/><text fill="#000000" font-family="sans-serif" font-size="14" lengthAdjust="spacing" textLength="153.2686" x="910.95" y="530.7732">boolean       fatalError</text><rect fill="none" height="6" style="stroke:#C82930;stroke-width:1;" width="6" x="898.95" y="540.7234"/><text fill="#000000" font-family="sans-serif" font-size="14" lengthAdjust="spacing" textLength="190.292" x="910.95" y="547.0701">Set&lt;uint16_t&gt; seenMsgIds</text><line style="stroke:#181818;stroke-width:0.5;" x1="891.95" x2="1423.7713" y1="554.3719" y2="554.3719"/><ellipse cx="901.95" cy="568.0203" fill="#84BE84" rx="3" ry="3" style="stroke:#038048;stroke-width:1;"/><text fill="#000000" font-family="sans-serif" font-size="14" lengthAdjust="spacing" textLength="61.8447" x="910.95" y="571.367">run(): int</text><polygon fill="#FFFF44" points="901.95,579.3172,905.95,583.3172,901.95,587.3172,897.95,583.3172" style="stroke:#B38D22;stroke-width:1;"/><text fill="#000000" font-family="sans-serif" font-size="14" lengthAdjust="spacing" textLength="255.083" x="910.95" y="587.6639">authenticate(secret:String): boolean</text><polygon fill="#FFFF44" points="901.95,595.6141,905.95,599.6141,901.95,603.6141,897.95,599.6141" style="stroke:#B38D22;stroke-width:1;"/><text fill="#000000" font-family="sans-serif" font-size="14" lengthAdjust="spacing" textLength="273.6699" x="910.95" y="603.9607">joinChannel(channelId:String): boolean</text><polygon fill="#FFFF44" points="901.95,611.9109,905.95,615.9109,901.95,619.9109,897.95,615.9109" style="stroke:#B38D22;stroke-width:1;"/><text fill="#000000" font-family="sans-serif" font-size="14" lengthAdjust="spacing" textLength="280.123" x="910.95" y="620.2576">sendChatMessage(msg:String): boolean</text><polygon fill="#FFFF44" points="901.95,628.2078,905.95,632.2078,901.95,636.2078,897.95,632.2078" style="stroke:#B38D22;stroke-width:1;"/><text fill="#000000" font-family="sans-serif" font-size="14" lengthAdjust="spacing" textLength="197.5928" x="910.95" y="636.5545">sendByeMessage(): boolean</text><polygon fill="#FFFF44" points="901.95,644.5047,905.95,648.5047,901.95,652.5047,897.95,648.5047" style="stroke:#B38D22;stroke-width:1;"/><text fill="#000000" font-family="sans-serif" font-size="14" lengthAdjust="spacing" textLength="251.3506" x="910.95" y="652.8514">sendProtocolError(msg:String): void</text><text fill="#000000" font-family="sans-serif" font-size="14" lengthAdjust="spacing" textLength="4.4502" x="910.95" y="669.1482">&#160;</text><rect fill="#F24D5C" height="6" style="stroke:#C82930;stroke-width:1;" width="6" x="898.95" y="679.0984"/><text fill="#000000" font-family="sans-serif" font-size="14" lengthAdjust="spacing" textLength="174.6445" x="910.95" y="685.4451">getNextMsgId(): uint16_t</text><rect fill="#F24D5C" height="6" style="stroke:#C82930;stroke-width:1;" width="6" x="898.95" y="695.3953"/><text fill="#000000" font-family="sans-serif" font-size="14" lengthAdjust="spacing" textLength="396.1357" x="910.95" y="701.742">checkAndUpdateServerPort(peerAddr:sockaddr_in): void</text><rect fill="#F24D5C" height="6" style="stroke:#C82930;stroke-width:1;" width="6" x="898.95" y="711.6922"/><text fill="#000000" font-family="sans-serif" font-size="14" lengthAdjust="spacing" textLength="507.8213" x="910.95" y="718.0389">sendUdpMessage(msg:vector&lt;char&gt;, requireConfirm:boolean): boolean</text><rect fill="#F24D5C" height="6" style="stroke:#C82930;stroke-width:1;" width="6" x="898.95" y="727.9891"/><text fill="#000000" font-family="sans-serif" font-size="14" lengthAdjust="spacing" textLength="316.9688" x="910.95" y="734.3357">awaitReply(expectedRefId:uint16_t): boolean</text><rect fill="#F24D5C" height="6" style="stroke:#C82930;stroke-width:1;" width="6" x="898.95" y="744.2859"/><text fill="#000000" font-family="sans-serif" font-size="14" lengthAdjust="spacing" textLength="231.376" x="910.95" y="750.6326">handleStdinEvent(buf:String): int</text><rect fill="#F24D5C" height="6" style="stroke:#C82930;stroke-width:1;" width="6" x="898.95" y="760.5828"/><text fill="#000000" font-family="sans-serif" font-size="14" lengthAdjust="spacing" textLength="254.1328" x="910.95" y="766.9295">handleSocketEvent(buf:char[]): void</text><rect fill="#F24D5C" height="6" style="stroke:#C82930;stroke-width:1;" width="6" x="898.95" y="776.8797"/><text fill="#000000" font-family="sans-serif" font-size="14" lengthAdjust="spacing" textLength="243.79" x="910.95" y="783.2264">sendConfirm(msgId:uint16_t): void</text><rect fill="#F24D5C" height="6" style="stroke:#C82930;stroke-width:1;" width="6" x="898.95" y="793.1766"/><text fill="#000000" font-family="sans-serif" font-size="14" lengthAdjust="spacing" textLength="258.9248" x="910.95" y="799.5232">isDuplicate(msgId:uint16_t): boolean</text><rect fill="#F24D5C" height="6" style="stroke:#C82930;stroke-width:1;" width="6" x="898.95" y="809.4734"/><text fill="#000000" font-family="sans-serif" font-size="14" lengthAdjust="spacing" textLength="224.4512" x="910.95" y="815.8201">sendByeAndWaitConfirm(): void</text><rect fill="#F24D5C" height="6" style="stroke:#C82930;stroke-width:1;" width="6" x="898.95" y="825.7703"/><text fill="#000000" font-family="sans-serif" font-size="14" lengthAdjust="spacing" textLength="105.1299" x="910.95" y="832.117">cleanup(): void</text><rect fill="#F24D5C" height="6" style="stroke:#C82930;stroke-width:1;" width="6" x="898.95" y="842.0672"/><text fill="#000000" font-family="sans-serif" font-size="14" lengthAdjust="spacing" textLength="145.5645" x="910.95" y="848.4139">initSocket(): boolean</text><rect fill="#F24D5C" height="6" style="stroke:#C82930;stroke-width:1;" width="6" x="898.95" y="858.3641"/><text fill="#000000" font-family="sans-serif" font-size="14" lengthAdjust="spacing" textLength="149.2969" x="910.95" y="864.7107">setupEpoll(): boolean</text><rect fill="#F24D5C" height="6" style="stroke:#C82930;stroke-width:1;" width="6" x="898.95" y="874.6609"/><text fill="#000000" font-family="sans-serif" font-size="14" lengthAdjust="spacing" textLength="112.0342" x="910.95" y="881.0076">eventLoop(): int</text></g><!--class ProgramArgs--><g class="entity" data-entity="ProgramArgs" data-source-line="149" data-uid="ent0013" id="entity_ProgramArgs"><rect fill="#F1F1F1" height="129.4844" rx="2.5" ry="2.5" style="stroke:#181818;stroke-width:0.5;" width="228.166" x="86.49" y="313.26"/><ellipse cx="150.7546" cy="329.26" fill="#ADD1B2" rx="11" ry="11" style="stroke:#181818;stroke-width:1;"/><path d="M153.7234,334.9006 Q153.1453,335.1975 152.5046,335.3381 Q151.864,335.4944 151.1609,335.4944 Q148.6609,335.4944 147.3328,333.8538 Q146.0203,332.1975 146.0203,329.0725 Q146.0203,325.9475 147.3328,324.2913 Q148.6609,322.635 151.1609,322.635 Q151.864,322.635 152.5046,322.7913 Q153.1609,322.9475 153.7234,323.2444 L153.7234,325.9631 Q153.0984,325.385 152.5046,325.1194 Q151.9109,324.8381 151.2859,324.8381 Q149.9421,324.8381 149.2546,325.9163 Q148.5671,326.9788 148.5671,329.0725 Q148.5671,331.1663 149.2546,332.2444 Q149.9421,333.3069 151.2859,333.3069 Q151.9109,333.3069 152.5046,333.0413 Q153.0984,332.76 153.7234,332.1819 L153.7234,334.9006 Z " fill="#000000"/><text fill="#000000" font-family="sans-serif" font-size="14" lengthAdjust="spacing" textLength="91.1367" x="171.2546" y="334.1067">ProgramArgs</text><line style="stroke:#181818;stroke-width:0.5;" x1="87.49" x2="313.656" y1="345.26" y2="345.26"/><ellipse cx="97.49" cy="358.9084" fill="none" rx="3" ry="3" style="stroke:#038048;stroke-width:1;"/><text fill="#000000" font-family="sans-serif" font-size="14" lengthAdjust="spacing" textLength="184.2354" x="106.49" y="362.2551">String   transport_protocol</text><ellipse cx="97.49" cy="375.2053" fill="none" rx="3" ry="3" style="stroke:#038048;stroke-width:1;"/><text fill="#000000" font-family="sans-serif" font-size="14" lengthAdjust="spacing" textLength="161.7588" x="106.49" y="378.552">String   server_address</text><ellipse cx="97.49" cy="391.5022" fill="none" rx="3" ry="3" style="stroke:#038048;stroke-width:1;"/><text fill="#000000" font-family="sans-serif" font-size="14" lengthAdjust="spacing" textLength="141.8936" x="106.49" y="394.8489">uint16_t server_port</text><ellipse cx="97.49" cy="407.7991" fill="none" rx="3" ry="3" style="stroke:#038048;stroke-width:1;"/><text fill="#000000" font-family="sans-serif" font-size="14" lengthAdjust="spacing" textLength="150.083" x="106.49" y="411.1457">uint16_t udp_timeout</text><ellipse cx="97.49" cy="424.0959" fill="none" rx="3" ry="3" style="stroke:#038048;stroke-width:1;"/><text fill="#000000" font-family="sans-serif" font-size="14" lengthAdjust="spacing" textLength="202.166" x="106.49" y="427.4426">uint8_t  udp_retransmissions</text><line style="stroke:#181818;stroke-width:0.5;" x1="87.49" x2="313.656" y1="434.7444" y2="434.7444"/></g><!--class Main--><g class="entity" data-entity="Main" data-source-line="157" data-uid="ent0014" id="entity_Main"><rect fill="#F1F1F1" height="113.1875" rx="2.5" ry="2.5" style="stroke:#181818;stroke-width:0.5;" width="355.1367" x="23" y="165.41"/><ellipse cx="179.6079" cy="181.41" fill="#ADD1B2" rx="11" ry="11" style="stroke:#181818;stroke-width:1;"/><path d="M182.5767,187.0506 Q181.9985,187.3475 181.3579,187.4881 Q180.7173,187.6444 180.0142,187.6444 Q177.5142,187.6444 176.186,186.0038 Q174.8735,184.3475 174.8735,181.2225 Q174.8735,178.0975 176.186,176.4413 Q177.5142,174.785 180.0142,174.785 Q180.7173,174.785 181.3579,174.9413 Q182.0142,175.0975 182.5767,175.3944 L182.5767,178.1131 Q181.9517,177.535 181.3579,177.2694 Q180.7642,176.9881 180.1392,176.9881 Q178.7954,176.9881 178.1079,178.0663 Q177.4204,179.1288 177.4204,181.2225 Q177.4204,183.3163 178.1079,184.3944 Q178.7954,185.4569 180.1392,185.4569 Q180.7642,185.4569 181.3579,185.1913 Q181.9517,184.91 182.5767,184.3319 L182.5767,187.0506 Z " fill="#000000"/><text fill="#000000" font-family="sans-serif" font-size="14" lengthAdjust="spacing" textLength="33.4209" x="200.1079" y="186.2567">Main</text><line style="stroke:#181818;stroke-width:0.5;" x1="24" x2="377.1367" y1="197.41" y2="197.41"/><line style="stroke:#181818;stroke-width:0.5;" x1="24" x2="377.1367" y1="205.41" y2="205.41"/><ellipse cx="34" cy="219.0584" fill="#84BE84" rx="3" ry="3" style="stroke:#038048;stroke-width:1;"/><text fill="#000000" font-family="sans-serif" font-size="14" lengthAdjust="spacing" textLength="329.1367" x="43" y="222.4051">parseArgs(argc:int,argv:String[]): ProgramArgs</text><ellipse cx="34" cy="235.3553" fill="#84BE84" rx="3" ry="3" style="stroke:#038048;stroke-width:1;"/><text fill="#000000" font-family="sans-serif" font-size="14" lengthAdjust="spacing" textLength="272.2686" x="43" y="238.702">createClient(args:ProgramArgs): Client</text><ellipse cx="34" cy="251.6522" fill="#84BE84" rx="3" ry="3" style="stroke:#038048;stroke-width:1;"/><text fill="#000000" font-family="sans-serif" font-size="14" lengthAdjust="spacing" textLength="220.6777" x="43" y="254.9989">signalHandler(signum:int): void</text><ellipse cx="34" cy="267.9491" fill="#84BE84" rx="3" ry="3" style="stroke:#038048;stroke-width:1;"/><text fill="#000000" font-family="sans-serif" font-size="14" lengthAdjust="spacing" textLength="220.5889" x="43" y="271.2957">main(argc:int,argv:String[]): int</text></g><!--class Debug--><g class="entity" data-entity="Debug" data-source-line="164" data-uid="ent0015" id="entity_Debug"><rect fill="#E1D5E7" height="72.5625" rx="2.5" ry="2.5" style="stroke:#181818;stroke-width:0.5;" width="139.2441" x="130.95" y="57.72"/><ellipse cx="172.9412" cy="77.8528" fill="#ADD1B2" rx="11" ry="11" style="stroke:#181818;stroke-width:1;"/><path d="M175.91,83.4934 Q175.3318,83.7903 174.6912,83.9309 Q174.0506,84.0872 173.3475,84.0872 Q170.8475,84.0872 169.5193,82.4466 Q168.2068,80.7903 168.2068,77.6653 Q168.2068,74.5403 169.5193,72.8841 Q170.8475,71.2278 173.3475,71.2278 Q174.0506,71.2278 174.6912,71.3841 Q175.3475,71.5403 175.91,71.8372 L175.91,74.5559 Q175.285,73.9778 174.6912,73.7122 Q174.0975,73.4309 173.4725,73.4309 Q172.1287,73.4309 171.4412,74.5091 Q170.7537,75.5716 170.7537,77.6653 Q170.7537,79.7591 171.4412,80.8372 Q172.1287,81.8997 173.4725,81.8997 Q174.0975,81.8997 174.6912,81.6341 Q175.285,81.3528 175.91,80.7747 L175.91,83.4934 Z " fill="#000000"/><text fill="#000000" font-family="sans-serif" font-size="12" font-style="italic" lengthAdjust="spacing" textLength="51.2637" x="190.9393" y="73.8587">&#171;Macro&#187;</text><text fill="#000000" font-family="sans-serif" font-size="14" lengthAdjust="spacing" textLength="46.04" x="193.5511" y="89.6839">Debug</text><line style="stroke:#181818;stroke-width:0.5;" x1="131.95" x2="269.1941" y1="97.9856" y2="97.9856"/><line style="stroke:#181818;stroke-width:0.5;" x1="131.95" x2="269.1941" y1="105.9856" y2="105.9856"/><polygon fill="#FFFF44" points="141.95,114.6341,145.95,118.6341,141.95,122.6341,137.95,118.6341" style="stroke:#B38D22;stroke-width:1;"/><text fill="#000000" font-family="sans-serif" font-size="14" lengthAdjust="spacing" textLength="113.2441" x="150.95" y="122.9807">printf_debug(...)</text></g><g class="entity" data-entity="GMN24" data-source-line="185" data-uid="ent0025" id="entity_GMN24"><path d="M524.45,81.43 L524.45,90 L270.49,94 L524.45,98 L524.45,106.5628 A0,0 0 0 0 524.45,106.5628 L744.6331,106.5628 A0,0 0 0 0 744.6331,106.5628 L744.6331,91.43 L734.6331,81.43 L524.45,81.43 A0,0 0 0 0 524.45,81.43" fill="#FEFFDD" style="stroke:#181818;stroke-width:0.5;"/><path d="M734.6331,81.43 L734.6331,91.43 L744.6331,91.43 L734.6331,81.43" fill="#FEFFDD" style="stroke:#181818;stroke-width:0.5;"/><text fill="#000000" font-family="sans-serif" font-size="13" lengthAdjust="spacing" textLength="199.1831" x="530.45" y="98.4969">Conditional debug&#8209;print macro</text></g><!--reverse link Client to TcpClient--><g class="link" data-entity-1="Client" data-entity-2="TcpClient" data-source-line="172" data-uid="lnk16" id="link_Client_TcpClient"><path codeLine="172" d="M825.2699,865.7427 C843.3699,883.2727 848.84,887.94 866.95,904 C910.04,942.21 959.13,981.18 1004.51,1015.54" fill="none" id="Client-backto-TcpClient" style="stroke:#181818;stroke-width:1;"/><polygon fill="none" points="812.34,853.22,821.0957,870.0527,829.4441,861.4327,812.34,853.22" style="stroke:#181818;stroke-width:1;"/></g><!--reverse link Client to UdpClient--><g class="link" data-entity-1="Client" data-entity-2="UdpClient" data-source-line="173" data-uid="lnk17" id="link_Client_UdpClient"><path codeLine="173" d="M849.0925,650.4334 C868.6025,649.0134 870.67,648.86 890.73,647.4" fill="none" id="Client-backto-UdpClient" style="stroke:#181818;stroke-width:1;"/><polygon fill="none" points="831.14,651.74,849.5281,656.4175,848.657,644.4492,831.14,651.74" style="stroke:#181818;stroke-width:1;"/></g><!--reverse link ClientState to Client--><g class="link" data-entity-1="ClientState" data-entity-2="Client" data-source-line="175" data-uid="lnk18" id="link_ClientState_Client"><path codeLine="175" d="M274.6778,800.5827 C320.2378,783.4927 377.27,762.11 437.78,739.42" fill="none" id="ClientState-backto-Client" style="stroke:#181818;stroke-width:1;"/><polygon fill="#181818" points="269.06,802.69,278.8915,803.2743,273.7415,800.9339,276.0818,795.7839,269.06,802.69" style="stroke:#181818;stroke-width:1;"/></g><!--reverse link MessageType to Client--><g class="link" data-entity-1="MessageType" data-entity-2="Client" data-source-line="176" data-uid="lnk19" id="link_MessageType_Client"><path codeLine="176" d="M270.8204,636.6143 C316.7604,640.3343 375.57,645.1 438.06,650.16" fill="none" id="MessageType-backto-Client" style="stroke:#181818;stroke-width:1;"/><polygon fill="#181818" points="264.84,636.13,273.4878,640.8433,269.8237,636.5336,274.1335,632.8694,264.84,636.13" style="stroke:#181818;stroke-width:1;"/></g><!--reverse link ParsedMessage to Client--><g class="link" data-entity-1="ParsedMessage" data-entity-2="Client" data-source-line="177" data-uid="lnk20" id="link_ParsedMessage_Client"><path codeLine="177" d="M287.2861,976.8605 C325.4961,959.0105 365.33,937.58 402.14,910 C424.91,892.93 447.4,873.51 468.9,853.26" fill="none" id="ParsedMessage-backto-Client" style="stroke:#181818;stroke-width:1;"/><polygon fill="#181818" points="281.85,979.4,291.6971,979.2148,286.3801,977.2838,288.3111,971.9667,281.85,979.4" style="stroke:#181818;stroke-width:1;"/></g><!--reverse link ParsedMessage to TcpClient--><g class="link" data-entity-1="ParsedMessage" data-entity-2="TcpClient" data-source-line="179" data-uid="lnk21" id="link_ParsedMessage_TcpClient"><path codeLine="179" d="M287.7392,1023.0988 C446.9592,1041.7688 799.24,1083.07 1004.58,1107.15" fill="none" id="ParsedMessage-backto-TcpClient" style="stroke:#181818;stroke-width:1;"/><polygon fill="#181818" points="281.78,1022.4,290.2529,1027.4209,286.746,1022.9823,291.1846,1019.4754,281.78,1022.4" style="stroke:#181818;stroke-width:1;"/></g><!--reverse link ParsedMessage to UdpClient--><g class="link" data-entity-1="ParsedMessage" data-entity-2="UdpClient" data-source-line="180" data-uid="lnk22" id="link_ParsedMessage_UdpClient"><path codeLine="180" d="M287.7438,1006.5204 C414.8838,994.6104 662.06,961.06 854.95,869 C866.9,863.29 878.81,857.04 890.6,850.34" fill="none" id="ParsedMessage-backto-UdpClient" style="stroke:#181818;stroke-width:1;"/><polygon fill="#181818" points="281.77,1007.08,291.1038,1010.2232,286.7482,1006.6137,290.3577,1002.258,281.77,1007.08" style="stroke:#181818;stroke-width:1;"/></g><!--link Main to Client--><g class="link" data-entity-1="Main" data-entity-2="Client" data-source-line="182" data-uid="lnk23" id="link_Main_Client"><path codeLine="182" d="M377.73,278.82 C386.3,284.08 394.51,289.8 402.14,296 C462.24,344.87 508.2731,408.5206 545.4631,473.6006" fill="none" id="Main-to-Client" style="stroke:#181818;stroke-width:1;stroke-dasharray:7.0,7.0;"/><polygon fill="#181818" points="548.44,478.81,547.4476,469.0113,545.9592,474.4688,540.5017,472.9805,548.44,478.81" style="stroke:#181818;stroke-width:1;"/></g><!--SRC=[vLdzRjis4FzVJq4qGADYJO1sMrSOHW37bbTjiHlOpefY60n6ecKkCgcHb5EZ6z1N6B0dx9Fi-269ifKzm6G4jiGxtWTvzxiZS_xrdoyz-GlEqGq-y5AXvqYgGqvP5fptoFsSR1HI70cQRHLAgI29efm5ye6o0WkyGmLE7d16bh0u16aoPbbEF0QvnIb_X8L36vnB4i2IJiY6CeAIKYg-GmdFkP1emqKbJ7hJannBYJu725q3CHEyPEbOpnWERmLN76PVNQ4RRTzrNf8klcii2V3epzbqEdqz7dTnhSQtZWcTJRwFtaw-w-AwcpHSqsdqfblM35DMQtmxZfxYIWItR6VHAz3vG_1NqAlmEaVL7g8S7uZebVCksD6pUWrMXuB8PwWLsJhouO-mSeTcH4gOeTdCE4AZkzKxy_3J-tXk7cRB7ytlzSV8_2wYsvkFvYbQBCpl-Fry6Yzcvlasdblsk_dFy_SVj0W8GQTkd5F2r59XLQcBv_6grXlDL_5ujAeaQ0lM7qPnQo2QcCTLj9Z5yz7Al1e5DgrliP0aTMwT-etGDosV5NovuQKI6bBCnm35gwS8hvyYVEi89MNgrPkrqcyxcSLfnxWWcvb7kkSy9vWPMR9C4h3HEDQxz1tTIoLmej0zO2nigWwOVYQnJHQaQutEO5TpT1JZQerip3j66zyNhIIJ-jkD- -6QKba0FixnhejQIY9ODodPOiP87ayS3I8QLH_9amUYfgaZ-I5DvLrQ12xM9L5n2YPITGYrge5LyD8PvLvV3D2Uqoe_HCb2605rLiePmgNQQY49U1XAaWYYcfbEjsFzdLCsjeQ7bGFfKyoIG3dTOkLW8eG4_Y_MwmEfE3lf5G15Gd3H5cRSSwo5u3hdxs0vObQKAgJwksCfpX0uaEOaPWdV0SqtimL-xKbxdDCKLYfczxfVw6Hl6q_bBthEIc0cgMxHGWsM0myzJwO88dc-9- -uL3fymYqyD2xSKAc6zksgdzW63I5iXA2uhv2c5y32aqOqsnz_hcltAYcEeCmX3oJ5deXHcWfR5ZtWiQHRBfGRNz4TWGT516G7rd4BI2YK7Zx29Ie_O0XibasvM3NiHroFDS-25FcXhKNeeGd1AHpZI70ALVy_fBemh9KSWH-xDLvKWBOqDS52sdsvsTHety1J3u40pdpz1WAz00qGs2Dm0mJGAtG3GTLeF8q7BGuF5lpM6z01qfUNQYOzwjkAY7Ruqu8eNVTsL4g01DafX95FgcdXZoqW1S_pkXVIhH46UzUKjUplQ9KGsc25RHPMtXCrh7HVmMp2Z5xP4yJ9Y9fNQwq5LKlXoCcM90yZbjuLki5PrZiV5iGkyi1RVRyhibW6mUQxioU9uc88Io6kNWB0_r5IGSQSRQZO3PmB9s27TPKmzI4admgGGD85sS0wLgQUpB1Dt5Abb4Lxs2eDZettrKxMV0P56qPjtQ-_dVhYx0pDeTDNxl5HEIcBt8R62L_RIBU7iBQwKbR2s-8IpLyMHwEKKMMD3ZkaghA8T7gSqeXsyORpeedd7fO7VTc7dgDIqHoQ3oBxMID6XGrJ060KCIKEkbIuUz2cLW26P0BlHYAJzGrFNIqCY1U01Ul2GSqnXuNYDVPgYNTFuwX5LKSyKfaMQrT6F98f8feaJWg8TqbbzhSojj2dC6r-Y4MM3438ItZOEp0mMUxvw2O1eaF-sYAfvyc1nmCpBAKwRzECuVoTGH8HwhTof_MqJzWxCEff4wfSh7sOaFioGysLy-Vw80kictMgoU7bvUMBVgRmWkGcSkMM5ltANzUv3V-yk6XETAtHkhqB0l-kQdXHtLq5_XMjFtvqkziGEYYDxbEQPu79nSlBgreIus2B_UyKtzWmXn26ufUQMn2S8nFRNx_yRK8TyWOI881AYVJCVm40]--></g></svg>